HIERARCHY
ROOT Hips
{
  OFFSET 267.745 86.9975 -272.335
  CHANNELS 6 Xposition Yposition Zposition Zrotation Xrotation Yrotation
  JOINT LeftUpLeg
  {
    OFFSET 8.64259 1.95398 -2.38835
    CHANNELS 3 Zrotation Xrotation Yrotation
    JOINT LeftLeg
    {
      OFFSET 43.7702 0 0
      CHANNELS 3 Zrotation Xrotation Yrotation
      JOINT LeftFoot
      {
        OFFSET 40.6238 0 0
        CHANNELS 3 Zrotation Xrotation Yrotation
        JOINT LeftToeBase
        {
          OFFSET 12.7242 0 0
          CHANNELS 3 Zrotation Xrotation Yrotation
          End Site
          {
            OFFSET 0 0 0
          }
        }
      }
    }
  }
  JOINT RightUpLeg
  {
    OFFSET -8.2249 1.95398 -2.59336
    CHANNELS 3 Zrotation Xrotation Yrotation
    JOINT RightLeg
    {
      OFFSET 43.5653 0 0
      CHANNELS 3 Zrotation Xrotation Yrotation
      JOINT RightFoot
      {
        OFFSET 40.6238 0 0
        CHANNELS 3 Zrotation Xrotation Yrotation
        JOINT RightToeBase
        {
          OFFSET 12.7242 0 0
          CHANNELS 3 Zrotation Xrotation Yrotation
          End Site
          {
            OFFSET 0 0 0
          }
        }
      }
    }
  }
  JOINT Spine
  {
    OFFSET 0.165834 0.87714 6.61349
    CHANNELS 3 Zrotation Xrotation Yrotation
    JOINT Spine1
    {
      OFFSET 7.38963 1.71661e-005 0
      CHANNELS 3 Zrotation Xrotation Yrotation
      JOINT Spine2
      {
        OFFSET 11.9445 1.14441e-005 0
        CHANNELS 3 Zrotation Xrotation Yrotation
        JOINT Spine3
        {
          OFFSET 14.7254 4.19617e-005 0
          CHANNELS 3 Zrotation Xrotation Yrotation
          JOINT Spine4
          {
            OFFSET 10.9679 0 0
            CHANNELS 3 Zrotation Xrotation Yrotation
            JOINT RightShoulder
            {
              OFFSET 2.46616 -1.6653 3.69651
              CHANNELS 3 Zrotation Xrotation Yrotation
              JOINT RightArm
              {
                OFFSET 13.0012 0 0
                CHANNELS 3 Zrotation Xrotation Yrotation
                JOINT RightForeArm
                {
                  OFFSET 28.7848 1.52588e-005 0
                  CHANNELS 3 Zrotation Xrotation Yrotation
                  JOINT RightHand
                  {
                    OFFSET 26.5688 1.52588e-005 0
                    CHANNELS 3 Zrotation Xrotation Yrotation
                    End Site
                    {
                      OFFSET 0 0 0
                    }
                  }
                }
              }
            }
            JOINT LeftShoulder
            {
              OFFSET 2.38034 -1.29275 -3.7523
              CHANNELS 3 Zrotation Xrotation Yrotation
              JOINT LeftArm
              {
                OFFSET 16.3182 6.10352e-005 0
                CHANNELS 3 Zrotation Xrotation Yrotation
                JOINT LeftForeArm
                {
                  OFFSET 27.0901 0 0
                  CHANNELS 3 Zrotation Xrotation Yrotation
                  JOINT LeftHand
                  {
                    OFFSET 24.5451 1.52588e-005 0
                    CHANNELS 3 Zrotation Xrotation Yrotation
                    End Site
                    {
                      OFFSET 0 0 0
                    }
                  }
                }
              }
            }
            JOINT Neck
            {
              OFFSET 5.0226 -0.0266342 0
              CHANNELS 3 Zrotation Xrotation Yrotation
              JOINT Head
              {
                OFFSET 6.69364 2.86102e-005 0
                CHANNELS 3 Zrotation Xrotation Yrotation
                End Site
                {
                  OFFSET 0 0 0
                }
              }
            }
          }
        }
      }
    }
  }
}
MOTION
Frames:	9
Frame Time:	0.0416667
-281.098 91.8147 285.497 88.6757 37.9763 88.6648 -169.274 -9.92103 90.365 1.05212 13.5946 -4.68989 64.4952 3.00125 13.5874 34.6721 -0.324971 -5.11951 175.511 0.41844 86.7227 -18.2872 -5.70722 -1.92141 72.5012 4.5056 17.6813 21.4639 1.59415 1.50414 1.26016 5.4089 -89.2377 16.0463 2.8732 1.07017 4.37817 2.91755 0.94257 -18.1728 2.41875 1.88452 1.83988 2.41875 1.88452 131.402 -45.94 -35.7578 36.2672 -18.6082 7.59532 -11.6437 -30.8423 -29.4059 -11.1914 -0.770938 2.93232 -61.9108 -35.9655 125.363 -43.8878 1.31713 -9.35893 173.177 66.5181 -179.991 27.2191 10.8538 35.4951 22.5954 -24.9568 -13.325 -57.2867 -23.4241 6.44555 
-281.236 91.8487 285.64 88.6709 38.1277 88.3769 -169.454 -9.8499 90.0696 1.10466 13.3969 -4.70472 64.2966 2.92679 13.455 34.7806 -0.342425 -5.11536 175.476 0.760393 86.5306 -18.6938 -6.34795 -1.92906 72.2867 4.30518 16.6249 22.0554 1.43324 1.63295 1.21959 5.44211 -89.1615 15.9772 2.83164 1.23291 4.30889 2.88314 1.107 -18.2396 2.33021 2.02716 1.77301 2.33019 2.02715 131.64 -46.2889 -35.5929 36.3717 -18.6796 7.02662 -11.3705 -31.0768 -29.0039 -11.5588 -0.818902 3.16081 -61.9927 -35.4531 125.411 -44.2272 1.3328 -9.69921 173.179 66.0054 -179.991 27.0733 11.1406 36.6476 23.647 -25.3617 -13.7679 -58.1385 -23.762 6.77656 
-281.616 91.9831 286.018 88.5098 38.6003 87.8107 -169.943 -9.38474 89.3519 1.083 13.6479 -4.72696 63.9027 2.96823 13.7108 34.7355 -0.327883 -5.23505 175.4 1.39175 86.024 -18.9782 -6.18806 -2.00903 72.2467 4.21213 16.5346 22.1368 1.51372 0.989544 1.11612 5.46073 -89.0803 15.9375 2.66824 1.4245 4.26865 2.72835 1.30562 -18.2753 2.11682 2.16064 1.7373 2.11685 2.16064 131.452 -46.8557 -36.1741 35.9794 -18.7281 6.81767 -11.1549 -30.6004 -28.7098 -11.2327 -0.703498 2.18313 -62.1206 -35.4984 125.17 -44.234 1.3149 -9.78489 173.119 64.6531 -179.991 27.6183 12.0686 38.989 24.6296 -25.1463 -12.9432 -59.3926 -23.4593 6.07724 
-282.186 92.1665 286.572 88.3045 39.3708 86.9535 -170.852 -8.73703 88.2125 1.11886 13.8655 -4.59294 62.9994 2.70876 13.6418 35.3231 -0.456125 -4.63026 175.047 2.86411 85.1601 -20.5172 -6.11584 -1.81801 71.9525 4.09113 15.1907 22.8772 1.08399 2.76116 0.953446 5.5049 -88.9671 15.8458 2.40378 1.69765 4.17609 2.47616 1.59019 -18.3611 1.78255 2.34151 1.65152 1.78256 2.34152 131.167 -47.7498 -37.0602 35.3122 -18.7316 6.12334 -10.3492 -30.1171 -27.7577 -11.8483 -0.663812 1.37402 -62.174 -35.8608 124.944 -43.9902 1.43593 -10.1996 173.058 63.3018 -179.992 27.8814 13.0199 41.6777 26.786 -24.6869 -11.3074 -61.9118 -22.8273 4.75924 
-282.887 92.5151 287.313 88.1949 40.4785 85.8404 -171.728 -7.91753 86.988 1.08338 14.4412 -4.59577 62.1518 2.7555 13.8962 35.5136 -0.494092 -4.49195 175.031 4.13182 84.3905 -21.353 -5.14926 -2.07017 71.2926 4.25555 15.4507 24.2716 0.781063 2.61696 0.739877 5.57047 -88.8223 15.7116 2.05419 2.04836 4.04081 2.14236 1.95598 -18.4879 1.34383 2.5708 1.52472 1.34384 2.5708 130.886 -49.0321 -38.1243 34.5219 -19.1186 5.62919 -10.1066 -29.4811 -27.8048 -11.9144 -0.69338 1.63602 -62.4714 -36.064 124.351 -43.744 1.88608 -10.5208 172.774 63.2 -179.992 28.1012 13.761 43.6908 28.8377 -24.4447 -10.2577 -63.8299 -22.5592 4.19347 
-283.606 92.878 288.132 88.0221 41.927 84.6137 -173.07 -6.88497 85.3419 0.975662 15.6876 -4.35637 60.7962 3.04552 15.7737 37.6037 -0.79615 -4.86013 174.908 6.1174 83.6351 -23.5551 -5.34313 -2.0799 70.6092 3.34911 12.6806 26.2721 0.283741 3.00329 0.475551 5.64428 -88.6646 15.5623 1.60991 2.43858 3.89022 1.71564 2.3654 -18.6292 0.802939 2.80941 1.38345 0.802925 2.80941 130.511 -50.3717 -39.3258 33.8709 -19.5801 5.20471 -10.4004 -28.965 -28.7152 -11.3684 -0.956798 4.75304 -62.9585 -36.2018 123.453 -43.4876 2.39641 -10.753 172.545 65.1802 -179.991 28.9447 14.2309 43.9193 31.0836 -24.0714 -9.34938 -65.7203 -22.2787 3.95816 
-284.25 93.0724 288.948 88.127 43.7946 83.1438 -174.654 -5.16963 83.6238 -1.10097 15.8597 -3.69436 60.7957 3.73127 15.87 38.9251 -1.01384 -4.29193 174.836 7.73195 82.6055 -25.7696 -2.95652 -2.40857 71.267 3.93039 14.8842 26.6967 0.448177 0.61991 0.161644 5.7587 -88.5061 15.3345 1.06646 2.84415 3.66094 1.19054 2.7945 -18.8495 0.162814 3.033 1.16316 0.162799 3.033 130.113 -52.2908 -40.8014 32.6062 -19.2185 4.5709 -9.67769 -27.7244 -28.372 -11.342 -0.971614 4.93556 -63.6435 -36.7945 122.062 -42.7995 2.77615 -11.132 172.65 68.6654 -179.99 29.0764 13.2095 40.5896 33.5124 -23.8649 -9.09756 -66.6385 -22.6535 5.2023 
-284.626 93.0948 289.535 88.0677 46.0423 81.8511 -176.086 -3.68031 82.1505 -2.67569 16.565 -3.07108 60.7273 3.68875 15.2426 40.3484 -1.24216 -3.43806 173.866 8.97225 81.2294 -27.0746 -3.81597 -1.68942 70.6715 3.17597 11.8266 29.665 -0.393146 2.24038 -0.196806 5.84682 -88.3908 15.1635 0.413212 3.17556 3.48875 0.552527 3.15433 -19.0158 -0.559771 3.15305 0.99686 -0.559766 3.15305 129.56 -54.3324 -42.5004 30.8411 -18.3444 4.05834 -9.12422 -26.4669 -28.0744 -11.4629 -0.963344 4.74704 -64.6116 -37.6121 120.128 -42.5233 2.19461 -12.2425 173.536 66.4458 -179.991 30.2552 10.7659 34.0029 35.4038 -22.7815 -8.45471 -67.8487 -22.0258 5.69163 
-284.695 92.9486 289.904 88.3201 48.6269 80.3309 -177.88 -2.4264 80.561 -4.4958 16.6734 -2.08586 60.8405 3.99134 14.4997 40.7861 -1.30973 -2.93125 172.946 9.69913 79.6769 -28.3667 -1.89879 -1.29723 71.5929 3.6968 13.8139 28.479 -0.111583 2.01397 -0.589806 5.97206 -88.313 14.9225 -0.329345 3.44069 3.24705 -0.177674 3.45182 -19.256 -1.34767 3.18313 0.756638 -1.34766 3.18313 128.815 -56.3797 -44.4025 28.6628 -16.9644 3.23251 -8.09211 -25.1376 -26.9904 -10.8687 -0.817879 3.70598 -65.9246 -38.3298 117.661 -43.099 1.61093 -14.0561 -2.51723 72.1778 -0.0122451 8.26457 -0.42721 -7.98521 37.0518 -21.1313 -8.05986 -68.8119 -20.9647 6.50153 
